{
    "asset" : {
        "generator" : "Khronos glTF Blender I/O v1.3.48",
        "version" : "2.0"
    },
    "scene" : 0,
    "scenes" : [
        {
            "name" : "Scene",
            "nodes" : [
                0,
                1,
                2
            ]
        }
    ],
    "nodes" : [
        {
            "mesh" : 0,
            "name" : "Metal",
            "rotation" : [
                0.7071068286895752,
                0,
                0,
                0.7071067094802856
            ],
            "scale" : [
                0.010000001639127731,
                0.009999999776482582,
                0.009999999776482582
            ]
        },
        {
            "mesh" : 1,
            "name" : "Pillow",
            "rotation" : [
                0.7071068286895752,
                0,
                0,
                0.7071067094802856
            ],
            "scale" : [
                0.010000001639127731,
                0.009999999776482582,
                0.009999999776482582
            ]
        },
        {
            "mesh" : 2,
            "name" : "Wood",
            "rotation" : [
                0.7071068286895752,
                0,
                0,
                0.7071067094802856
            ],
            "scale" : [
                0.010000001639127731,
                0.009999999776482582,
                0.009999999776482582
            ]
        }
    ],
    "materials" : [
        {
            "doubleSided" : true,
            "emissiveFactor" : [
                0,
                0,
                0
            ],
            "name" : "Material.001",
            "pbrMetallicRoughness" : {
                "baseColorFactor" : [
                    0.800000011920929,
                    0.800000011920929,
                    0.800000011920929,
                    1
                ],
                "metallicFactor" : 0,
                "roughnessFactor" : 0.5
            }
        },
        {
            "doubleSided" : true,
            "emissiveFactor" : [
                0,
                0,
                0
            ],
            "name" : "Material_0",
            "pbrMetallicRoughness" : {
                "baseColorFactor" : [
                    0.9450980424880981,
                    0.9450980424880981,
                    0.9450980424880981,
                    1
                ],
                "metallicFactor" : 0.5,
                "roughnessFactor" : 0.5
            }
        }
    ],
    "meshes" : [
        {
            "name" : "Mesh_0",
            "primitives" : [
                {
                    "attributes" : {
                        "POSITION" : 0,
                        "NORMAL" : 1,
                        "TEXCOORD_0" : 2
                    },
                    "indices" : 3,
                    "material" : 0
                }
            ]
        },
        {
            "name" : "Mesh_1",
            "primitives" : [
                {
                    "attributes" : {
                        "POSITION" : 4,
                        "NORMAL" : 5,
                        "TEXCOORD_0" : 6
                    },
                    "indices" : 7,
                    "material" : 1
                }
            ]
        },
        {
            "name" : "Mesh_2",
            "primitives" : [
                {
                    "attributes" : {
                        "POSITION" : 8,
                        "NORMAL" : 9,
                        "TEXCOORD_0" : 10
                    },
                    "indices" : 11,
                    "material" : 1
                }
            ]
        }
    ],
    "accessors" : [
        {
            "bufferView" : 0,
            "componentType" : 5126,
            "count" : 8846,
            "max" : [
                19.879562377929688,
                3.743040084838867,
                -9.666786193847656
            ],
            "min" : [
                -19.88313102722168,
                -23.752235412597656,
                -30.67526626586914
            ],
            "type" : "VEC3"
        },
        {
            "bufferView" : 1,
            "componentType" : 5126,
            "count" : 8846,
            "type" : "VEC3"
        },
        {
            "bufferView" : 2,
            "componentType" : 5126,
            "count" : 8846,
            "type" : "VEC2"
        },
        {
            "bufferView" : 3,
            "componentType" : 5123,
            "count" : 52872,
            "type" : "SCALAR"
        },
        {
            "bufferView" : 4,
            "componentType" : 5126,
            "count" : 7424,
            "max" : [
                16.613534927368164,
                4.494379043579102,
                -11.648436546325684
            ],
            "min" : [
                -16.613548278808594,
                -19.814992904663086,
                -26.783769607543945
            ],
            "type" : "VEC3"
        },
        {
            "bufferView" : 5,
            "componentType" : 5126,
            "count" : 7424,
            "type" : "VEC3"
        },
        {
            "bufferView" : 6,
            "componentType" : 5126,
            "count" : 7424,
            "type" : "VEC2"
        },
        {
            "bufferView" : 7,
            "componentType" : 5123,
            "count" : 42336,
            "type" : "SCALAR"
        },
        {
            "bufferView" : 8,
            "componentType" : 5126,
            "count" : 1174,
            "max" : [
                17.313159942626953,
                9.195716857910156,
                0.009815216064453125
            ],
            "min" : [
                -18.556583404541016,
                -18.901935577392578,
                -26.86708641052246
            ],
            "type" : "VEC3"
        },
        {
            "bufferView" : 9,
            "componentType" : 5126,
            "count" : 1174,
            "type" : "VEC3"
        },
        {
            "bufferView" : 10,
            "componentType" : 5126,
            "count" : 1174,
            "type" : "VEC2"
        },
        {
            "bufferView" : 11,
            "componentType" : 5123,
            "count" : 5544,
            "type" : "SCALAR"
        }
    ],
    "bufferViews" : [
        {
            "buffer" : 0,
            "byteLength" : 106152,
            "byteOffset" : 0
        },
        {
            "buffer" : 0,
            "byteLength" : 106152,
            "byteOffset" : 106152
        },
        {
            "buffer" : 0,
            "byteLength" : 70768,
            "byteOffset" : 212304
        },
        {
            "buffer" : 0,
            "byteLength" : 105744,
            "byteOffset" : 283072
        },
        {
            "buffer" : 0,
            "byteLength" : 89088,
            "byteOffset" : 388816
        },
        {
            "buffer" : 0,
            "byteLength" : 89088,
            "byteOffset" : 477904
        },
        {
            "buffer" : 0,
            "byteLength" : 59392,
            "byteOffset" : 566992
        },
        {
            "buffer" : 0,
            "byteLength" : 84672,
            "byteOffset" : 626384
        },
        {
            "buffer" : 0,
            "byteLength" : 14088,
            "byteOffset" : 711056
        },
        {
            "buffer" : 0,
            "byteLength" : 14088,
            "byteOffset" : 725144
        },
        {
            "buffer" : 0,
            "byteLength" : 9392,
            "byteOffset" : 739232
        },
        {
            "buffer" : 0,
            "byteLength" : 11088,
            "byteOffset" : 748624
        }
    ],
    "buffers" : [
        {
            "byteLength" : 759712,
            "uri" : "data:application/octet-stream;base64,"
        }
    ]
}
